<svg width="1312" height="537" viewBox="0 0 1312 537" fill="none" xmlns="http://www.w3.org/2000/svg">
<path fill-rule="evenodd" clip-rule="evenodd" d="M144.154 0L269.37 0C294.356 15.8408 325.071 36.8464 359.164 60.8152C401.49 90.5719 449.276 125.044 499.054 160.951L499.055 160.952C638.127 261.275 792.741 372.808 887.232 424.053C895.071 428.303 902.393 432.17 909.223 435.675C862.853 376.283 786.667 294.072 712.272 214.8C689.568 190.607 671.61 170.065 659.058 153.3C652.804 144.947 647.213 136.638 642.991 128.64C639.266 121.582 634.22 110.443 633.916 97.5387C633.748 90.4076 635.001 81.4034 640.007 72.4197C645.18 63.1339 652.814 56.6583 660.784 52.6422C674.729 45.614 689.018 46.3495 696.632 47.1522C713.471 48.9273 734.119 55.6915 755.551 63.9862C822.709 89.9788 939.917 148.497 1101.51 229.171C1150.21 253.487 1202.95 279.816 1259.56 307.874C1278.53 317.278 1295.98 325.539 1312 332.744V423.614C1285.18 412.656 1255.04 398.886 1221.32 382.171C1162.61 353.075 1108.53 326.076 1059.06 301.385L1059.06 301.383C939.585 241.745 847.087 195.573 781.641 165.85C868.129 258.074 963.621 361.361 1006.17 425.754C1016.84 441.907 1027.1 459.8 1031.36 476.547C1033.45 484.794 1035.58 498.257 1030.34 512.518C1026.41 523.211 1019.52 531.356 1011.25 537H930.97C930.354 536.776 929.736 536.55 929.118 536.321C907.243 528.217 879.741 515.09 846.203 496.902C746.457 442.807 583.755 325.423 443.359 224.133L443.358 224.132C427.872 212.959 412.658 201.983 397.829 191.309C474.018 274.39 519.308 334.652 539.528 377.312C550.654 400.789 560.695 432.082 546.672 460.218C530.599 492.465 496.236 497.396 476.099 497.396C453.724 497.396 428.209 491.858 403.461 484.559C378.038 477.059 350.407 466.77 322.833 455.364C267.662 432.54 210.278 404.225 167.055 381.823C149.874 372.918 129.748 362.342 107.685 350.748C74.9519 333.547 37.9573 314.106 0 294.565L0 200.733C52.9159 227.524 105.692 255.264 149.632 278.361L149.638 278.365C171.092 289.642 190.44 299.811 206.669 308.222C248.924 330.122 303.857 357.186 355.782 378.664C381.758 389.41 406.37 398.502 427.88 404.847C442.04 409.025 453.725 411.664 462.906 413.027C462.81 412.824 462.715 412.62 462.616 412.413C444.842 374.909 393.716 307.285 287.197 196.353C233.893 140.843 197.38 100.523 175.393 73.0716C164.74 59.7708 155.804 47.4297 150.367 36.8428C147.985 32.2036 143.856 23.4343 143.189 12.869C142.972 9.46687 143.057 4.99603 144.154 0ZM1312 92.0198C1296.95 61.8687 1282.59 31.255 1270.85 1.66438C1294.51 7.58839 1312 28.6394 1312 53.7V92.0198ZM949.058 496.702C949.14 497.023 949.099 496.965 949.028 496.585C949.038 496.626 949.048 496.665 949.058 496.702ZM977.244 463.661C977.421 463.665 977.515 463.673 977.519 463.677C977.525 463.681 977.435 463.679 977.244 463.661ZM481.478 413.764C481.5 413.78 481.273 413.847 480.732 413.922C481.185 413.787 481.456 413.749 481.478 413.764ZM717.529 88.7041C717.535 88.7069 717.596 88.8403 717.685 89.0954C717.566 88.8288 717.52 88.7013 717.529 88.7041ZM687.509 129.904C687.06 129.904 686.814 129.879 686.803 129.867C686.792 129.854 687.016 129.854 687.509 129.904Z" fill="white" fill-opacity="0.1"/>
</svg>
