<svg width="1100" height="330" viewBox="0 0 1100 330" fill="none" xmlns="http://www.w3.org/2000/svg">
<path fill-rule="evenodd" clip-rule="evenodd" d="M-43 229.006C-37.3955 234.823 -31.7239 240.573 -25.9878 246.243C4.84599 276.724 38.0614 305.44 73.1557 330H187.85C185.623 328.904 183.386 327.776 181.14 326.615C132.444 301.445 83.8248 263.136 37.8615 217.699C9.16854 189.336 -17.9731 158.714 -43 127.664V229.006ZM440.948 282.422C449.085 297.313 455.586 313.704 455.055 330H378.064C378.067 329.964 378.07 329.928 378.073 329.892C378.631 322.832 375.836 313.079 368.627 299.888C361.528 286.898 351.395 272.715 339.827 256.968C338.294 254.88 336.726 252.755 335.134 250.598C314.088 222.086 288.837 187.875 282.288 155.743C278.592 137.616 280.303 118.289 293.533 99.9199C306.877 81.3919 330.026 66.4895 362.078 55.1007C430.055 30.9471 494.139 39.6101 549.706 61.6138C602.868 82.665 652.097 117.291 696.72 149.744C701.783 153.427 706.795 157.086 711.757 160.71C752.347 190.352 789.774 217.685 827.646 236.973C869.792 258.437 903.908 265.492 936.146 259.242C957.025 255.196 962.79 250.989 963.964 249.874C963.971 249.867 963.981 249.859 963.991 249.85L964.001 249.84C964.355 249.522 965.921 248.115 964.066 242.541C961.928 236.116 956.204 227.486 946.279 216.019C938.515 207.049 929.448 197.729 919.48 187.485L919.479 187.484C916.84 184.77 914.137 181.993 911.378 179.14C886.781 153.694 856.592 121.436 849.377 88.6421C845.563 71.3074 847.875 52.9842 861.094 35.2354C870.962 21.9851 885.994 10.2831 905.812 0H1097.52C1117.85 0 1135.32 8.1234 1143 19.7536C1082.82 9.55342 1022.28 11.3554 967.079 33.9352C945.661 42.6964 935.196 51.0212 930.05 57.9304C925.031 64.6697 923.511 72.1439 925.511 81.2393C929.926 101.304 949.957 124.434 976.11 151.486C978.531 153.992 981.008 156.536 983.509 159.105L983.51 159.107C993.61 169.483 1004.11 180.267 1012.97 190.511C1023.93 203.17 1034.46 217.267 1039.19 231.492C1044.13 246.335 1043.4 263.624 1027.01 279.201C1011.53 293.904 986.5 302.762 957.687 308.348C890.54 321.364 830.558 302.891 780.853 277.577C737.081 255.285 694.637 224.245 654.957 195.226C649.9 191.529 644.889 187.863 639.926 184.254C594.151 150.963 552.19 122.135 510.328 105.558C470.873 89.9341 436.102 86.7974 398.35 100.211C377.538 107.606 367.78 115.281 362.935 122.008C357.975 128.894 356.217 137.503 358.535 148.875C363.34 172.45 383.308 199.612 406.42 231.054C407.266 232.204 408.116 233.361 408.97 234.524C420.399 250.082 432.27 266.544 440.948 282.422Z" fill="#F7F7F7"/>
</svg>
