<svg width="22" height="23" viewBox="0 0 22 23" fill="none" xmlns="http://www.w3.org/2000/svg">
<path fill-rule="evenodd" clip-rule="evenodd" d="M6.87133 3.71973H15.1296C17.4048 3.71973 19.25 5.56406 19.25 7.84106V16.0993C19.25 18.3745 17.4057 20.2197 15.1287 20.2197H6.87133C4.59525 20.2197 2.75 18.3754 2.75 16.0984V7.84106C2.75 5.56498 4.59433 3.71973 6.87133 3.71973V3.71973Z" stroke="#05060F" stroke-width="1.5" stroke-linecap="round" stroke-linejoin="round"/>
<path d="M15.5366 7.12332C15.3661 7.12424 15.2277 7.26266 15.2277 7.43316C15.2277 7.60366 15.367 7.74207 15.5375 7.74207C15.708 7.74207 15.8464 7.60366 15.8464 7.43316C15.8474 7.26174 15.708 7.12332 15.5366 7.12332" stroke="#05060F" stroke-width="1.5" stroke-linecap="round" stroke-linejoin="round"/>
<path d="M13.3335 9.63623C14.6222 10.925 14.6222 13.0144 13.3335 14.3031C12.0447 15.5919 9.95529 15.5919 8.66656 14.3031C7.37783 13.0144 7.37783 10.925 8.66656 9.63623C9.95529 8.34749 12.0447 8.34749 13.3335 9.63623" stroke="#05060F" stroke-width="1.5" stroke-linecap="round" stroke-linejoin="round"/>
</svg>
