<svg width="56" height="56" viewBox="0 0 56 56" fill="none" xmlns="http://www.w3.org/2000/svg">
<path fill-rule="evenodd" clip-rule="evenodd" d="M27.5302 39.2161L22.7979 43.82C21.9775 44.6175 20.6048 44.2646 20.2725 43.1692L17.1191 32.7879" fill="#333333"/>
<path d="M27.5302 39.2161L22.7979 43.82C21.9775 44.6175 20.6048 44.2646 20.2725 43.1692L17.1191 32.7879" stroke="#333333" stroke-width="2" stroke-linecap="round" stroke-linejoin="round"/>
<path fill-rule="evenodd" clip-rule="evenodd" d="M32.8216 25.5142C32.8216 25.5142 26.8885 30.8675 23.8452 33.6152C22.9354 34.4356 23.011 35.8794 23.9964 36.6059L36.321 45.7106C37.5333 46.6067 39.2658 45.949 39.5798 44.4731L45.6321 15.9488C45.9254 14.5692 44.571 13.4165 43.2556 13.9229L7.7004 27.6363C6.6531 28.0396 6.70352 29.5361 7.77373 29.8706L17.1169 32.7856" fill="#333333"/>
</svg>
