<svg width="22" height="23" viewBox="0 0 22 23" fill="none" xmlns="http://www.w3.org/2000/svg">
<path fill-rule="evenodd" clip-rule="evenodd" d="M6.875 3.71973H15.1287C17.4048 3.71973 19.25 5.56498 19.25 7.84106V16.0993C19.25 18.3745 17.4048 20.2197 15.1287 20.2197H6.87133C4.59525 20.2197 2.75 18.3745 2.75 16.0984V7.84473C2.75 5.56681 4.59708 3.71973 6.875 3.71973V3.71973Z" stroke="#05060F" stroke-width="1.5" stroke-linecap="round" stroke-linejoin="round"/>
<path fill-rule="evenodd" clip-rule="evenodd" d="M9.25283 15.1698L8.5085 12.7186C8.50758 12.7177 6.37633 12.0531 6.37633 12.0531C6.1325 11.977 6.12058 11.6351 6.35983 11.5435L14.4732 8.41395C14.773 8.29845 15.0819 8.56154 15.0159 8.87595L13.6528 15.3C13.5731 15.6767 13.1303 15.8445 12.8214 15.6153L10.8854 14.1853L9.74416 15.2963C9.58375 15.4503 9.31791 15.3815 9.25283 15.1698V15.1698Z" stroke="#05060F" stroke-width="1.5" stroke-linecap="round" stroke-linejoin="round"/>
</svg>
