<svg width="43" height="24" viewBox="0 0 43 24" fill="none" xmlns="http://www.w3.org/2000/svg">
<rect width="43" height="23" transform="translate(0 0.973145)" fill="#E5F33C"/>
<path d="M16.32 17.9731H25.328V15.8771H20.64L23.552 13.1251C24.0213 12.6985 24.4 12.2238 24.688 11.7011C24.976 11.1785 25.12 10.6185 25.12 10.0211C25.12 9.61581 25.0347 9.21048 24.864 8.80514C24.704 8.39981 24.4533 8.03181 24.112 7.70114C23.7813 7.35981 23.36 7.08781 22.848 6.88514C22.3467 6.67181 21.76 6.56514 21.088 6.56514C20.1813 6.56514 19.4133 6.75714 18.784 7.14114C18.1653 7.51448 17.696 8.02114 17.376 8.66114C17.056 9.30114 16.896 10.0211 16.896 10.8211H19.136C19.136 10.3731 19.2107 9.97848 19.36 9.63714C19.52 9.29581 19.7387 9.03448 20.016 8.85314C20.304 8.66114 20.6453 8.56514 21.04 8.56514C21.3173 8.56514 21.5627 8.61314 21.776 8.70914C21.9893 8.79448 22.1707 8.91181 22.32 9.06114C22.4693 9.21048 22.5813 9.38114 22.656 9.57314C22.7307 9.76514 22.768 9.96248 22.768 10.1651C22.768 10.4531 22.7147 10.7305 22.608 10.9971C22.5013 11.2638 22.3467 11.5305 22.144 11.7971C21.9413 12.0638 21.696 12.3518 21.408 12.6611L16.32 17.9731Z" fill="#05060F"/>
</svg>
