<svg width="42" height="24" viewBox="0 0 42 24" fill="none" xmlns="http://www.w3.org/2000/svg">
<rect width="42" height="23" transform="translate(0 0.973145)" fill="#E5F33C"/>
<path d="M20.288 12.5171C21.1307 12.5171 21.8827 12.4051 22.544 12.1811C23.2053 11.9571 23.728 11.6318 24.112 11.2051C24.496 10.7678 24.688 10.2451 24.688 9.63714C24.688 9.07181 24.544 8.55981 24.256 8.10114C23.968 7.64248 23.5467 7.27448 22.992 6.99714C22.448 6.71981 21.7867 6.58114 21.008 6.58114C20.272 6.58114 19.6267 6.72514 19.072 7.01314C18.5173 7.30114 18.08 7.69581 17.76 8.19714C17.4507 8.68781 17.296 9.25314 17.296 9.89314H19.424C19.424 9.47714 19.5733 9.13581 19.872 8.86914C20.1813 8.59181 20.56 8.45314 21.008 8.45314C21.328 8.45314 21.5893 8.50648 21.792 8.61314C21.9947 8.71981 22.1493 8.87448 22.256 9.07714C22.3627 9.27981 22.416 9.51448 22.416 9.78114C22.416 9.99448 22.3627 10.2025 22.256 10.4051C22.16 10.5971 22.0213 10.7731 21.84 10.9331C21.6587 11.0825 21.4347 11.1998 21.168 11.2851C20.912 11.3705 20.6187 11.4131 20.288 11.4131V12.5171ZM20.912 18.1971C21.744 18.1971 22.464 18.0638 23.072 17.7971C23.6907 17.5198 24.1653 17.1358 24.496 16.6451C24.8373 16.1545 25.008 15.5891 25.008 14.9491C25.008 14.3838 24.8907 13.9038 24.656 13.5091C24.4213 13.1038 24.0907 12.7731 23.664 12.5171C23.2373 12.2505 22.736 12.0585 22.16 11.9411C21.5947 11.8238 20.9707 11.7651 20.288 11.7651V12.9811C20.6827 12.9811 21.0293 13.0238 21.328 13.1091C21.6373 13.1838 21.8933 13.2958 22.096 13.4451C22.3093 13.5945 22.4693 13.7811 22.576 14.0051C22.6827 14.2185 22.736 14.4531 22.736 14.7091C22.736 15.0611 22.6613 15.3545 22.512 15.5891C22.3627 15.8238 22.1547 16.0051 21.888 16.1331C21.632 16.2505 21.328 16.3091 20.976 16.3091C20.6347 16.3091 20.32 16.2451 20.032 16.1171C19.744 15.9785 19.5147 15.7811 19.344 15.5251C19.1733 15.2691 19.088 14.9598 19.088 14.5971H16.816C16.816 15.0771 16.912 15.5358 17.104 15.9731C17.296 16.3998 17.568 16.7838 17.92 17.1251C18.272 17.4558 18.6987 17.7171 19.2 17.9091C19.7013 18.1011 20.272 18.1971 20.912 18.1971Z" fill="#05060F"/>
</svg>
