<svg width="60" height="39" viewBox="0 0 60 39" fill="none" xmlns="http://www.w3.org/2000/svg">
<rect y="0.969727" width="60" height="38" rx="19" fill="#E5F33C"/>
<path d="M24.36 25.9697H34.494V23.6117H29.22L32.496 20.5157C33.024 20.0357 33.45 19.5017 33.774 18.9137C34.098 18.3257 34.26 17.6957 34.26 17.0237C34.26 16.5677 34.164 16.1117 33.972 15.6557C33.792 15.1997 33.51 14.7857 33.126 14.4137C32.754 14.0297 32.28 13.7237 31.704 13.4957C31.14 13.2557 30.48 13.1357 29.724 13.1357C28.704 13.1357 27.84 13.3517 27.132 13.7837C26.436 14.2037 25.908 14.7737 25.548 15.4937C25.188 16.2137 25.008 17.0237 25.008 17.9237H27.528C27.528 17.4197 27.612 16.9757 27.78 16.5917C27.96 16.2077 28.206 15.9137 28.518 15.7097C28.842 15.4937 29.226 15.3857 29.67 15.3857C29.982 15.3857 30.258 15.4397 30.498 15.5477C30.738 15.6437 30.942 15.7757 31.11 15.9437C31.278 16.1117 31.404 16.3037 31.488 16.5197C31.572 16.7357 31.614 16.9577 31.614 17.1857C31.614 17.5097 31.554 17.8217 31.434 18.1217C31.314 18.4217 31.14 18.7217 30.912 19.0217C30.684 19.3217 30.408 19.6457 30.084 19.9937L24.36 25.9697Z" fill="#05060F"/>
</svg>
