<svg width="59" height="39" viewBox="0 0 59 39" fill="none" xmlns="http://www.w3.org/2000/svg">
<rect y="0.969727" width="59" height="38" rx="19" fill="#E5F33C"/>
<path d="M28.824 19.8317C29.772 19.8317 30.618 19.7057 31.362 19.4537C32.106 19.2017 32.694 18.8357 33.126 18.3557C33.558 17.8637 33.774 17.2757 33.774 16.5917C33.774 15.9557 33.612 15.3797 33.288 14.8637C32.964 14.3477 32.49 13.9337 31.866 13.6217C31.254 13.3097 30.51 13.1537 29.634 13.1537C28.806 13.1537 28.08 13.3157 27.456 13.6397C26.832 13.9637 26.34 14.4077 25.98 14.9717C25.632 15.5237 25.458 16.1597 25.458 16.8797H27.852C27.852 16.4117 28.02 16.0277 28.356 15.7277C28.704 15.4157 29.13 15.2597 29.634 15.2597C29.994 15.2597 30.288 15.3197 30.516 15.4397C30.744 15.5597 30.918 15.7337 31.038 15.9617C31.158 16.1897 31.218 16.4537 31.218 16.7537C31.218 16.9937 31.158 17.2277 31.038 17.4557C30.93 17.6717 30.774 17.8697 30.57 18.0497C30.366 18.2177 30.114 18.3497 29.814 18.4457C29.526 18.5417 29.196 18.5897 28.824 18.5897V19.8317ZM29.526 26.2217C30.462 26.2217 31.272 26.0717 31.956 25.7717C32.652 25.4597 33.186 25.0277 33.558 24.4757C33.942 23.9237 34.134 23.2877 34.134 22.5677C34.134 21.9317 34.002 21.3917 33.738 20.9477C33.474 20.4917 33.102 20.1197 32.622 19.8317C32.142 19.5317 31.578 19.3157 30.93 19.1837C30.294 19.0517 29.592 18.9857 28.824 18.9857V20.3537C29.268 20.3537 29.658 20.4017 29.994 20.4977C30.342 20.5817 30.63 20.7077 30.858 20.8757C31.098 21.0437 31.278 21.2537 31.398 21.5057C31.518 21.7457 31.578 22.0097 31.578 22.2977C31.578 22.6937 31.494 23.0237 31.326 23.2877C31.158 23.5517 30.924 23.7557 30.624 23.8997C30.336 24.0317 29.994 24.0977 29.598 24.0977C29.214 24.0977 28.86 24.0257 28.536 23.8817C28.212 23.7257 27.954 23.5037 27.762 23.2157C27.57 22.9277 27.474 22.5797 27.474 22.1717H24.918C24.918 22.7117 25.026 23.2277 25.242 23.7197C25.458 24.1997 25.764 24.6317 26.16 25.0157C26.556 25.3877 27.036 25.6817 27.6 25.8977C28.164 26.1137 28.806 26.2217 29.526 26.2217Z" fill="#05060F"/>
</svg>
