<svg width="1080" height="461" viewBox="0 0 1080 461" fill="none" xmlns="http://www.w3.org/2000/svg">
<g clip-path="url(#clip0_662_4996)">
<path fill-rule="evenodd" clip-rule="evenodd" d="M118.664 0L221.738 0C242.305 13.5989 267.589 31.6316 295.653 52.2083C330.495 77.7535 369.831 107.347 410.807 138.172L410.808 138.173C525.288 224.297 652.561 320.046 730.344 364.038C736.797 367.687 742.824 371.006 748.446 374.015C710.275 323.028 647.561 252.453 586.322 184.4C567.632 163.631 552.85 145.996 542.517 131.604C537.369 124.433 532.767 117.3 529.291 110.434C526.225 104.375 522.071 94.8125 521.821 83.7343C521.683 77.6125 522.714 69.8826 526.835 62.1703C531.093 54.1987 537.377 48.6397 543.938 45.1919C555.417 39.1584 567.179 39.7898 573.447 40.4789C587.308 42.0027 604.306 47.8096 621.947 54.9305C677.23 77.2444 773.712 127.48 906.727 196.738C946.819 217.612 990.231 240.214 1036.83 264.302C1052.45 272.375 1066.81 279.466 1080 285.652V363.661C1057.92 354.254 1033.12 342.433 1005.35 328.083C957.029 303.105 912.505 279.927 871.789 258.73L871.785 258.729C773.439 207.532 697.297 167.894 643.424 142.378C714.619 221.55 793.225 310.218 828.25 365.498C837.035 379.365 845.476 394.725 848.981 409.103C850.708 416.183 852.457 427.74 848.147 439.983C844.915 449.163 839.236 456.155 832.429 461H766.347C765.841 460.808 765.331 460.614 764.822 460.417C746.816 453.46 724.177 442.191 696.57 426.577C614.461 380.138 480.53 279.367 364.96 192.412L364.959 192.411C352.212 182.82 339.688 173.397 327.481 164.234C390.198 235.556 427.48 287.289 444.123 323.912C453.282 344.066 461.547 370.931 450.004 395.085C436.774 422.768 408.487 427.001 391.911 427.001C373.492 427.001 352.489 422.247 332.117 415.981C311.19 409.542 288.444 400.709 265.746 390.918C220.331 371.324 173.095 347.017 137.515 327.785C123.372 320.14 106.805 311.061 88.643 301.108C61.6982 286.341 31.2453 269.652 0 252.876L0 172.324C43.5588 195.323 87.0023 219.138 123.173 238.965L123.177 238.969C140.838 248.65 156.764 257.38 170.124 264.6C204.907 283.401 250.126 306.634 292.869 325.073C314.252 334.298 334.512 342.104 352.219 347.55C363.874 351.137 373.493 353.403 381.051 354.572C380.972 354.398 380.893 354.223 380.812 354.046C366.181 321.849 324.096 263.796 236.412 168.564C192.534 120.91 162.478 86.2963 144.379 62.73C135.609 51.3116 128.253 40.7171 123.778 31.6285C121.817 27.6459 118.418 20.1177 117.869 11.0477C117.691 8.12705 117.761 4.28896 118.664 0ZM1080 78.9965C1067.61 53.1126 1055.79 26.8316 1046.12 1.42882C1065.6 6.51443 1080 24.5862 1080 46.1V78.9965ZM781.236 426.405C781.304 426.681 781.27 426.631 781.212 426.305C781.221 426.34 781.229 426.373 781.236 426.405ZM804.439 398.04C804.584 398.044 804.662 398.05 804.665 398.054C804.67 398.057 804.596 398.056 804.439 398.04ZM396.339 355.205C396.357 355.219 396.17 355.277 395.725 355.341C396.098 355.225 396.321 355.192 396.339 355.205ZM590.649 76.1501C590.654 76.1525 590.704 76.267 590.777 76.486C590.679 76.2571 590.642 76.1476 590.649 76.1501ZM565.937 111.519C565.568 111.519 565.365 111.498 565.356 111.487C565.347 111.476 565.531 111.476 565.937 111.519Z" fill="#FFFFFF0D"/>
</g>
<defs>
<clipPath id="clip0_662_4996">
<rect width="1100" height="474" fill="white"/>
</clipPath>
</defs>
</svg>
