<svg width="1080" height="705" viewBox="0 0 1080 705" fill="none" xmlns="http://www.w3.org/2000/svg">
<g clip-path="url(#clip0_663_5678)">
<path fill-rule="evenodd" clip-rule="evenodd" d="M172.057 705C52.1294 614.19 0.559674 488.301 0.984845 386.83C1.25609 322.096 22.5451 260.416 70.716 221.954C95.7723 201.948 129.73 187.097 172.275 183.76C214.193 180.471 257.034 188.947 298.72 206.047C304.466 208.405 310.181 210.827 315.865 213.31C336.932 181.06 364.663 152.215 398.592 129.344C460.811 87.4032 545.943 64.8478 643.119 82.3884C668.564 86.9808 693.724 93.0314 718.37 100.281C718.212 87.584 718.457 75.2161 719.097 63.3157C720.325 40.4557 723.022 18.9896 727.222 0H820.981C816.282 18.0444 813.093 40.2739 811.747 65.3028C810.583 86.9705 810.818 110.396 812.54 134.567C898.894 172.125 973.649 221.889 1024.49 269.966C1047.42 291.645 1066.74 314.14 1080 336.105V440.531C1079.97 440.556 1079.95 440.582 1079.92 440.607C1062.78 457.862 1035.9 468.976 1003.39 474.216C962.147 480.863 923.602 476.187 890.549 462.919C859.033 450.266 834.504 430.674 815.188 408.97C776.647 365.664 751.616 305.643 736.675 244.797C730.45 219.449 725.865 193.488 722.835 167.87C688.52 155.164 653.07 145.095 617.652 138.702C560.709 128.423 509.971 139.911 466.232 169.394C436.256 189.6 410.687 217.828 392.157 251.241C537.827 332.551 653.715 449.066 706.318 539.109C722.346 566.548 733.281 592.802 736.904 615.847C740.353 637.774 738.056 662.092 717.943 680.857C703.452 694.377 683.314 702.012 660.879 705H612.601C576.837 700.871 536.17 688.373 491.055 669.31C291.545 585.008 242.251 423.316 278.546 295.181C280.755 287.385 283.291 279.652 286.154 272.011C273.668 266.041 261.018 260.412 248.233 255.167C218.537 242.985 197.484 240.799 183.698 241.88C170.54 242.912 156.982 247.462 143.415 258.295C114.337 281.512 93.9387 327.266 93.6884 386.986C93.2295 496.522 160.08 629.823 302.405 705H172.057ZM542.593 620.628C390.18 556.227 340.302 429.163 366.94 316.509C482.259 388.556 575.404 484.165 619.347 559.388C633.737 584.019 642.068 605.191 644.654 621.637C647.29 638.391 643.274 645.754 641.434 647.763C640.156 647.927 636.884 648.164 630.767 647.549C613.781 645.841 585.19 638.627 542.593 620.628ZM828.282 235.818C826.512 228.61 824.884 221.346 823.393 214.051C872.095 240.973 914.972 271.831 947.409 302.502C984.521 337.595 1003.96 368.749 1006.35 390.206C1007.51 400.55 1004.48 406.383 1001.41 409.465C998.894 411.998 993.831 415.314 980.473 417.466C964.934 419.971 952.565 418.423 940.27 413.487C926.438 407.934 911.189 397.339 895.994 380.266C865.513 346.016 842.599 294.118 828.282 235.818Z" fill="#E6EBF080"/>
</g>
<defs>
<clipPath id="clip0_663_5678">
<rect width="1100" height="884" fill="white"/>
</clipPath>
</defs>
</svg>
