<svg width="1080" height="330" viewBox="0 0 1080 330" fill="none" xmlns="http://www.w3.org/2000/svg">
<g clip-path="url(#clip0_660_6769)">
<path fill-rule="evenodd" clip-rule="evenodd" d="M1078.47 229.006C1073.38 234.823 1068.22 240.573 1063 246.243C1034.96 276.724 1004.76 305.44 972.848 330H868.552C870.578 328.904 872.611 327.776 874.654 326.615C918.935 301.445 963.146 263.136 1004.94 217.699C1031.03 189.336 1055.71 158.714 1078.47 127.664V229.006ZM638.401 282.422C631.002 297.313 625.09 313.704 625.573 330H695.584C695.581 329.964 695.578 329.928 695.576 329.892C695.068 322.832 697.609 313.079 704.165 299.888C710.62 286.898 719.835 272.715 730.354 256.968C731.749 254.88 733.174 252.755 734.622 250.598C753.759 222.086 776.721 187.875 782.677 155.743C786.037 137.616 784.481 118.289 772.451 99.9199C760.317 81.3919 739.267 66.4895 710.12 55.1007C648.306 30.9471 590.033 39.6101 539.504 61.6138C491.161 82.665 446.396 117.291 405.819 149.744C401.214 153.427 396.657 157.086 392.144 160.71C355.235 190.352 321.201 217.685 286.763 236.973C248.438 258.437 217.415 265.492 188.1 259.242C169.114 255.196 163.872 250.989 162.804 249.874C162.797 249.867 162.788 249.859 162.779 249.85L162.77 249.84C162.449 249.522 161.024 248.115 162.712 242.541C164.655 236.116 169.861 227.486 178.886 216.019C185.946 207.049 194.191 197.729 203.255 187.485L203.256 187.484C205.655 184.77 208.113 181.993 210.622 179.14C232.989 153.694 260.441 121.436 267.002 88.6421C270.47 71.3074 268.368 52.9842 256.348 35.2354C247.374 21.9851 233.705 10.2831 215.683 0H41.3571C22.871 0 6.98025 8.1234 0 19.7536C54.7261 9.55342 109.777 11.3554 159.971 33.9352C179.448 42.6964 188.963 51.0212 193.643 57.9304C198.207 64.6697 199.59 72.1439 197.77 81.2393C193.756 101.304 175.541 124.434 151.759 151.486C149.557 153.992 147.305 156.536 145.031 159.105L145.03 159.107C135.846 169.483 126.301 180.267 118.239 190.511C108.275 203.17 98.6992 217.267 94.3943 231.492C89.9023 246.335 90.5668 263.624 105.478 279.201C119.552 293.904 142.311 302.762 168.512 308.348C229.571 321.364 284.115 302.891 329.314 277.577C369.117 255.285 407.712 224.245 443.795 195.226C448.394 191.529 452.951 187.863 457.464 184.254C499.088 150.963 537.245 122.135 575.311 105.558C611.189 89.9341 642.808 86.7974 677.137 100.211C696.062 107.606 704.936 115.281 709.342 122.008C713.851 128.894 715.45 137.503 713.342 148.875C708.973 172.45 690.816 199.612 669.799 231.054C669.03 232.204 668.256 233.361 667.48 234.524C657.087 250.082 646.292 266.544 638.401 282.422Z" fill="white" fill-opacity="0.1"/>
</g>
<defs>
<clipPath id="clip0_660_6769">
<rect width="1080" height="330" fill="white"/>
</clipPath>
</defs>
</svg>
