<svg width="1080" height="811" viewBox="0 0 1080 811" fill="none" xmlns="http://www.w3.org/2000/svg">
<path fill-rule="evenodd" clip-rule="evenodd" d="M726.489 811C752.471 734.292 785.382 631.769 820.577 522.12L822.438 516.321L822.443 516.305C875.691 350.403 934.895 165.945 986.363 18.5815C988.554 12.3105 990.726 6.11537 992.882 0H910.105C862.111 140.075 809.248 304.778 761.813 452.57L761.812 452.574L759.566 459.571C711.234 610.152 669.466 740.039 643.627 811H726.489ZM962.977 811H888.622C891.655 795.445 894.907 778.44 898.39 759.885C925.788 613.937 966.884 375.124 1025.75 0H1033.49C1058.55 0 1078.87 36.3097 1078.87 81.1V126.524C1027.53 450.186 990.636 663.698 965.073 799.869C964.366 803.636 963.667 807.346 962.977 811ZM552.558 811C548.166 776.202 544.437 737.341 541.089 697.065C537.192 650.175 533.706 600.028 530.297 550.59L529.796 543.325C526.54 496.083 523.337 449.62 519.832 406.011C516.14 360.078 512.21 318.581 507.727 283.937C503.7 252.807 499.645 230.665 495.915 216.624C481.939 291.782 470.739 432.377 460.846 612.368C458.229 659.976 453.943 699.421 447.329 730.101C441.012 759.4 430.135 791.818 410.213 806.825C407.96 808.522 405.723 809.903 403.507 811H374.578C367.519 807.73 361.206 802.521 355.989 797.083C342.973 783.509 331.288 763.25 321.336 743.048C301.193 702.162 280.913 646.322 263.449 596.028C257.867 579.956 252.609 564.565 247.667 550.101L247.665 550.097C236.32 516.895 226.643 488.575 218.557 468.079C210.864 448.58 204.289 426.659 198.837 407.963C197.697 404.054 196.609 400.299 195.562 396.682L195.558 396.674C191.209 381.659 187.558 369.058 183.77 357.85C183.177 356.094 182.608 354.462 182.064 352.943C180.772 355.69 179.304 359.009 177.662 363.012C169.458 383.011 159.166 414.462 146.517 461.796C126.131 538.082 101.002 650.337 69.5175 811H33.1204C20.0669 811 8.30075 801.15 0.0221558 785.381C33.3524 614.209 60.4436 492.206 83.0475 407.621C96.5911 356.939 109.057 317.648 120.937 288.688C132.263 261.077 145.837 235.853 162.921 223.84C183.515 209.36 202.844 218.106 217.248 236.834C229.41 252.649 238.024 275.249 243.973 292.852C249.084 307.969 254.075 325.221 258.477 340.442C259.417 343.688 260.329 346.842 261.209 349.863C266.644 368.5 271.333 383.708 276.04 395.636C285.541 419.721 297.203 453.848 309.201 488.96L309.202 488.962C313.857 502.585 318.561 516.354 323.21 529.741C340.774 580.315 358.312 627.88 374.127 659.982C377.576 666.981 380.618 672.568 383.241 676.948C386.077 660.817 388.864 636.148 390.847 600.077C400.69 421.006 412.509 264.583 429.745 173.915C434.135 150.82 439.526 128.343 446.532 109.882C453.133 92.4899 464.681 69.4782 482.966 62.7961C502.876 55.5202 519.176 71.4049 529.638 87.8631C539.848 103.924 548.361 126.036 555.787 149.94C564.852 179.124 571.253 216.955 576.255 255.615C581.395 295.34 585.654 340.867 589.453 388.136C593.062 433.042 596.345 480.668 599.576 527.545L599.577 527.547L600.105 535.215C603.528 584.855 606.913 633.486 610.662 678.594C614.422 723.836 618.443 764.201 623.02 797.365C623.683 802.162 624.343 806.706 624.999 811H552.558ZM378.631 696.012C378.63 696.008 378.66 695.935 378.725 695.808C378.664 695.952 378.632 696.016 378.631 696.012ZM505.67 178.268C505.671 178.283 505.592 178.463 505.426 178.76C505.586 178.401 505.669 178.252 505.67 178.268Z" fill="rgba(255, 255, 255, 1)";
"/>
</svg>
