<svg width="1080" height="1008" viewBox="0 0 1080 1008" fill="none" xmlns="http://www.w3.org/2000/svg">
<g clip-path="url(#clip0_664_11566)">
<path fill-rule="evenodd" clip-rule="evenodd" d="M118.664 0H221.738C242.305 29.7347 267.589 69.1642 295.653 114.156C330.495 170.012 369.831 234.719 410.807 302.12L410.808 302.123C525.288 490.437 652.561 699.796 730.344 795.987C736.797 803.966 742.824 811.223 748.446 817.803C710.275 706.318 647.561 552.001 586.322 403.2C567.632 357.787 552.85 319.229 542.517 287.759C537.369 272.079 532.767 256.483 529.291 241.47C526.225 228.221 522.071 207.312 521.821 183.089C521.683 169.704 522.714 152.802 526.835 135.939C531.093 118.508 537.377 106.353 543.938 98.8145C555.417 85.6218 567.179 87.0025 573.447 88.5092C587.308 91.8411 604.306 104.538 621.947 120.108C677.23 168.899 773.712 278.742 906.727 430.177C946.819 475.819 990.231 525.241 1036.83 577.909C1052.45 595.562 1066.81 611.067 1080 624.592V795.163C1057.92 774.595 1033.12 748.747 1005.35 717.371C957.029 662.755 912.505 612.075 871.789 565.727L871.785 565.725C773.439 453.779 697.297 367.109 643.424 311.316C714.619 484.43 793.225 678.308 828.25 799.18C837.035 829.501 845.476 863.087 848.981 894.524C850.708 910.005 852.457 935.275 848.147 962.045C844.915 982.117 839.236 997.406 832.429 1008H766.347C765.841 1007.58 765.331 1007.16 764.822 1006.72C746.816 991.514 724.177 966.874 696.57 932.733C614.461 831.192 480.53 610.85 364.96 420.719L364.959 420.717C352.212 399.745 339.688 379.142 327.481 359.105C390.198 515.055 427.48 628.173 444.123 708.251C453.282 752.318 461.547 811.059 450.004 863.874C436.774 924.404 408.487 933.66 391.911 933.66C373.492 933.66 352.489 923.265 332.117 909.564C311.19 895.484 288.444 876.171 265.746 854.761C220.331 811.919 173.095 758.769 137.515 716.718C123.372 700.003 106.805 680.151 88.643 658.388C61.6982 626.099 31.2453 589.607 0 552.926V376.795C43.5588 427.085 87.0023 479.155 123.173 522.509L123.177 522.517C140.838 543.685 156.764 562.774 170.124 578.562C204.907 619.671 250.126 670.471 292.869 710.789C314.252 730.959 334.512 748.027 352.219 759.936C363.874 767.779 373.493 772.733 381.051 775.291C380.972 774.91 380.893 774.527 380.812 774.139C366.181 703.74 324.096 576.803 236.412 368.573C192.534 264.376 162.478 188.691 144.379 137.162C135.609 112.195 128.253 89.0301 123.778 69.1574C121.817 60.4493 118.418 43.9884 117.869 24.1563C117.691 17.7702 117.761 9.37803 118.664 0ZM1080 172.73C1067.61 116.133 1055.79 58.6686 1046.12 3.1242C1065.6 14.2441 1080 53.7589 1080 100.8V172.73ZM781.236 932.357C781.304 932.959 781.27 932.851 781.212 932.138C781.221 932.214 781.229 932.287 781.236 932.357ZM804.439 870.335C804.584 870.342 804.662 870.358 804.665 870.365C804.67 870.373 804.596 870.37 804.439 870.335ZM396.339 776.674C396.357 776.704 396.17 776.83 395.725 776.971C396.098 776.717 396.321 776.646 396.339 776.674ZM590.649 166.506C590.654 166.511 590.704 166.762 590.777 167.241C590.679 166.74 590.642 166.501 590.649 166.506ZM565.937 243.843C565.568 243.843 565.365 243.796 565.356 243.772C565.347 243.749 565.531 243.749 565.937 243.843Z" fill="#ECF4FF"/>
</g>
<defs>
<clipPath id="clip0_664_11566">
<rect width="1080" height="1008" fill="white"/>
</clipPath>
</defs>
</svg>
